<?xml version="1.0" standalone="no"?>
<!DOCTYPE svg PUBLIC "-//W3C//DTD SVG 20010904//EN"
 "http://www.w3.org/TR/2001/REC-SVG-20010904/DTD/svg10.dtd">
<svg version="1.0" xmlns="http://www.w3.org/2000/svg"
 width="1438.000000pt" height="1087.000000pt" viewBox="0 0 1438.000000 1087.000000"
 preserveAspectRatio="xMidYMid meet">

<g transform="translate(0.000000,1087.000000) scale(0.100000,-0.100000)"
fill="#000000" stroke="none">
<path d="M7280 9754 c-118 -37 -167 -54 -525 -194 -217 -84 -398 -161 -392
-166 2 -2 120 43 263 100 401 160 552 217 639 243 75 22 81 22 93 6 6 -9 12
-11 12 -5 0 7 9 21 20 32 26 26 26 26 -110 -16z"/>
<path d="M7571 9443 c0 -7 -6 -13 -13 -13 -6 0 -26 -16 -44 -35 -23 -25 -40
-35 -62 -35 -56 0 -222 -49 -359 -106 -405 -169 -1293 -563 -1393 -618 -129
-72 -188 -92 -294 -102 -92 -8 -164 11 -229 62 -38 30 -52 35 -77 31 -40 -8
-40 10 1 43 25 21 29 30 24 53 -22 88 -114 27 -151 -100 -14 -49 -14 -58 0
-95 26 -63 56 -260 56 -362 0 -161 -33 -234 -141 -307 -85 -57 -129 -98 -129
-119 0 -10 16 -52 36 -93 20 -42 38 -94 41 -116 5 -37 3 -41 -21 -51 -15 -5
-53 -10 -84 -10 -115 0 -139 -41 -69 -117 83 -90 119 -157 127 -231 6 -71 20
-101 75 -170 55 -68 55 -83 0 -133 -41 -38 -46 -47 -42 -74 l5 -32 -111 -27
c-212 -52 -377 -155 -476 -297 -64 -91 -103 -186 -135 -329 -84 -381 -74 -655
34 -912 79 -190 286 -435 427 -504 76 -37 124 -41 170 -14 l37 22 18 -22 c10
-12 18 -28 18 -35 0 -7 15 -53 34 -102 19 -49 46 -133 60 -186 30 -115 52
-161 99 -206 59 -56 173 -72 223 -31 20 17 28 6 15 -18 -14 -26 -14 -94 0
-124 5 -13 40 -43 76 -68 40 -26 93 -77 136 -129 137 -164 299 -346 349 -392
l51 -46 -12 -115 c-22 -215 16 -602 71 -711 21 -43 37 -46 79 -15 44 33 60 17
85 -83 48 -196 115 -349 164 -374 24 -13 31 -12 61 6 73 42 95 49 140 41 98
-17 117 -127 46 -276 -20 -43 -34 -82 -31 -87 8 -14 40 -2 127 48 83 48 139
60 145 31 2 -10 -15 -63 -37 -119 -39 -97 -49 -139 -33 -139 4 0 45 34 91 75
46 41 109 87 140 102 53 27 62 28 182 25 l125 -2 60 37 c94 58 178 103 193
103 11 0 12 -12 7 -60 -9 -79 7 -138 38 -146 54 -13 96 42 96 126 0 27 4 50
10 50 5 0 20 -11 34 -25 43 -43 76 -34 155 38 90 83 127 101 218 101 86 1 105
15 162 121 20 38 63 111 94 162 81 131 152 268 178 343 22 61 24 86 29 385 6
311 7 322 32 392 14 40 38 93 52 118 34 57 169 199 297 312 199 175 235 188
300 112 48 -56 56 -49 75 67 25 155 36 202 55 233 22 36 45 39 90 12 42 -26
64 -14 81 42 17 57 14 286 -5 355 -16 60 -17 60 71 32 35 -11 83 -20 105 -20
122 1 318 143 431 314 48 72 157 300 185 386 90 276 63 556 -82 845 -113 227
-183 306 -340 383 -132 65 -186 82 -275 89 -84 7 -98 15 -107 65 -7 36 -6 37
32 47 62 17 162 82 215 140 70 77 101 142 102 216 1 58 0 60 -26 63 -22 3 -30
-2 -38 -22 -5 -15 -17 -26 -28 -26 -31 0 -120 -50 -150 -84 l-29 -33 -197 -23
c-140 -16 -203 -20 -219 -13 -16 7 -56 4 -147 -13 -183 -34 -309 -44 -535 -44
-342 0 -401 29 -597 291 -83 110 -178 255 -178 270 0 12 86 37 215 63 66 14
203 44 305 67 147 33 205 42 285 43 127 1 169 -10 390 -101 742 -307 765 -316
855 -323 66 -6 92 -4 114 8 l30 15 -23 18 c-15 13 -39 19 -70 19 -27 0 -56 7
-70 17 l-24 16 6 271 c4 191 13 334 30 486 14 118 28 290 32 381 8 188 1 219
-56 259 -18 13 -30 19 -26 13 4 -6 3 -22 -2 -36 -9 -22 -14 -24 -54 -20 -40 5
-47 3 -62 -20 -14 -23 -15 -37 -6 -109 6 -53 6 -110 1 -155 -5 -40 -23 -224
-40 -409 -31 -342 -48 -448 -80 -487 -17 -20 -21 -21 -61 -10 -24 6 -183 71
-353 143 -430 184 -423 183 -831 110 -305 -55 -468 -80 -514 -80 -54 0 -90 18
-99 49 -13 48 -7 579 8 681 9 65 12 156 10 290 -6 299 -2 461 12 478 13 15 25
262 15 312 -2 14 -5 19 -6 13z m-2176 -1823 c9 -27 14 -58 12 -67 -4 -14 -5
-13 -6 4 0 13 -10 45 -20 73 -11 27 -15 48 -11 45 5 -3 16 -28 25 -55z m39
-244 c43 -18 66 -51 66 -96 0 -64 -24 -79 -279 -166 -174 -60 -241 -74 -267
-56 -35 23 -46 129 -19 182 16 32 38 41 220 94 206 60 227 64 279 42z m1857
-19 c20 -13 44 -43 59 -74 14 -28 32 -60 41 -70 9 -10 41 -72 73 -137 62 -131
144 -260 202 -319 22 -22 84 -61 152 -95 l115 -57 151 1 c88 0 194 7 256 17
58 9 163 21 233 27 70 6 171 22 223 35 114 30 134 31 167 5 19 -15 27 -33 32
-68 12 -98 24 -121 95 -191 99 -98 103 -116 99 -428 l-4 -244 -25 6 c-136 35
-170 36 -665 30 -567 -7 -748 1 -813 34 -53 27 -51 35 4 19 65 -20 309 -15
476 10 93 14 195 22 277 22 l129 0 89 43 c85 41 91 42 183 41 72 -1 108 -6
150 -22 57 -23 105 -28 114 -13 3 4 -64 55 -149 111 -110 73 -171 121 -209
165 -95 108 -193 145 -385 145 -167 0 -238 -15 -650 -134 -189 -55 -207 -68
-205 -154 1 -43 15 -93 59 -207 69 -182 95 -279 95 -359 1 -34 6 -71 13 -82
15 -27 136 -140 250 -232 104 -85 254 -186 357 -240 113 -60 197 -67 120 -10
-18 13 -30 31 -30 44 0 29 50 71 103 84 23 6 58 16 77 21 19 5 80 14 135 20
204 21 255 68 446 407 72 129 69 130 93 -24 58 -373 44 -726 -39 -1044 -14
-52 -34 -106 -44 -120 -17 -22 -25 -25 -76 -22 -77 4 -87 -6 -79 -79 8 -70 1
-82 -64 -104 -26 -8 -85 -43 -132 -76 -96 -69 -116 -79 -168 -79 -52 0 -87 21
-315 187 -109 80 -201 143 -203 140 -10 -9 39 -114 84 -180 130 -188 152 -242
159 -377 9 -170 -43 -371 -148 -576 -77 -149 -99 -178 -147 -192 -52 -16 -112
-69 -184 -166 -77 -102 -138 -166 -158 -166 -9 0 -29 13 -45 30 -16 17 -35 30
-44 30 -8 0 -55 -24 -105 -54 -50 -30 -136 -73 -191 -96 -55 -23 -136 -58
-180 -77 -44 -19 -97 -40 -119 -46 -44 -13 -50 -8 -99 83 -20 38 -37 55 -65
67 -34 14 -42 14 -112 -6 -41 -12 -83 -19 -93 -15 -24 9 -135 199 -142 243 -7
43 -44 152 -55 165 -5 5 -27 1 -51 -8 -40 -16 -43 -16 -60 1 -20 21 -102 336
-88 341 5 2 62 -3 127 -12 240 -32 393 -40 767 -41 348 0 885 18 979 34 l38 6
-27 27 c-17 18 -42 29 -72 34 -25 4 -183 0 -352 -7 -382 -17 -878 -18 -1026
-1 -60 7 -172 22 -248 33 -75 10 -159 19 -185 19 -128 0 -232 132 -232 296 0
104 69 273 176 431 l64 94 -48 -28 c-26 -15 -64 -37 -85 -50 -21 -13 -84 -47
-140 -76 -122 -61 -195 -72 -260 -38 -31 16 -51 18 -111 14 -94 -7 -127 9
-152 72 -12 34 -15 60 -11 105 9 78 -8 90 -83 60 -28 -11 -64 -20 -80 -20 -38
0 -92 47 -118 103 -63 135 -93 515 -57 722 33 185 36 211 37 376 1 93 5 169 8
169 4 0 56 -81 116 -181 167 -277 214 -312 436 -329 68 -5 137 -17 172 -29
129 -45 152 -78 94 -138 l-33 -36 62 6 c42 3 79 15 120 36 58 32 480 338 562
408 43 38 43 38 56 138 8 55 30 154 51 220 20 66 48 156 61 200 15 46 25 109
26 148 2 65 1 70 -30 97 -18 16 -52 34 -75 40 -24 6 -128 34 -233 62 -349 93
-523 118 -684 99 -141 -17 -185 -38 -293 -139 -116 -107 -348 -252 -360 -224
-23 56 -1 175 55 294 l40 88 -5 227 c-3 126 -2 238 3 250 4 12 17 27 29 33 11
6 210 60 443 121 584 152 1097 291 1252 338 154 46 208 50 256 18z m2284 -454
c-11 -45 -108 -153 -137 -153 -7 0 -9 17 -5 47 3 26 1 58 -4 71 -5 14 -7 27
-5 30 6 6 113 30 140 31 15 1 17 -4 11 -26z m-4719 -324 c14 -11 44 -93 44
-120 0 -44 -75 -93 -308 -202 -53 -25 -106 -84 -139 -155 -63 -135 -70 -402
-17 -622 49 -198 213 -480 280 -480 13 0 60 18 104 40 44 22 82 40 85 40 10 0
5 -285 -6 -323 -20 -73 -80 -84 -202 -37 -168 64 -350 289 -430 531 -82 248
-72 581 26 839 52 139 153 306 240 398 79 83 268 137 323 91z m4766 -107 c142
-62 249 -124 282 -166 47 -57 60 -85 110 -243 114 -353 130 -524 70 -758 -75
-295 -236 -512 -468 -630 -58 -29 -83 -36 -131 -36 -71 -1 -107 11 -129 43
-22 31 -24 338 -2 338 7 0 47 -16 89 -35 105 -49 139 -47 191 9 23 24 69 90
103 147 174 288 214 542 131 823 -22 76 -38 96 -138 166 -35 25 -91 73 -125
106 -68 68 -99 87 -169 105 -71 18 -89 56 -66 141 6 21 18 38 28 40 31 7 160
-22 224 -50z m-4783 -176 c5 -6 12 -27 16 -47 6 -34 3 -39 -62 -105 -139 -141
-203 -279 -203 -440 0 -93 23 -197 53 -238 12 -17 15 -3 20 110 7 145 23 220
68 312 31 62 122 167 167 191 l22 12 0 -456 0 -456 -23 -23 c-34 -34 -125 -53
-176 -37 -44 13 -119 89 -153 155 -89 174 -128 463 -84 625 19 69 65 167 101
216 13 17 34 53 49 82 29 58 73 97 126 110 39 10 64 7 79 -11z m4735 -93 c95
-30 160 -122 219 -308 79 -251 46 -493 -96 -705 -69 -103 -128 -143 -212 -143
-51 0 -123 24 -137 46 -11 17 -10 927 1 927 15 0 102 -73 145 -120 70 -77 125
-237 127 -367 0 -26 4 -68 8 -93 l8 -45 22 47 c31 68 44 151 37 240 -13 161
-74 283 -187 377 -35 29 -74 61 -86 72 -52 44 -12 105 62 94 22 -4 62 -13 89
-22z m-4003 -340 c55 -27 79 -32 169 -38 58 -3 178 -15 268 -26 284 -34 407
-41 524 -29 59 6 125 17 147 25 47 16 53 6 15 -24 -57 -45 -73 -46 -784 -47
-591 -1 -682 -3 -730 -17 -30 -9 -56 -15 -58 -12 -2 2 -6 21 -8 42 -13 99 116
165 312 160 67 -2 90 -7 145 -34z"/>
<path d="M6855 5237 c-71 -77 -122 -138 -112 -134 39 15 137 89 175 132 34 38
79 131 69 141 -1 2 -61 -61 -132 -139z"/>
<path d="M7435 5349 c15 -51 43 -106 71 -138 30 -36 139 -121 155 -121 9 0
-206 266 -224 277 -5 3 -6 -4 -2 -18z"/>
<path d="M6710 4532 c-85 -56 -210 -156 -210 -168 0 -19 5 -18 69 13 39 19 76
29 122 31 81 5 128 -16 187 -83 50 -57 80 -59 128 -11 38 38 41 54 19 95 -20
40 -69 79 -140 113 -69 32 -136 36 -175 10z"/>
<path d="M7505 4538 c-38 -14 -99 -52 -152 -96 -55 -45 -58 -79 -9 -128 27
-27 42 -34 73 -34 33 0 46 7 87 49 94 95 190 113 312 57 31 -14 68 -26 83 -26
25 1 24 3 -23 46 -136 125 -264 170 -371 132z"/>
<path d="M7157 4455 c-36 -294 -33 -767 7 -1012 l12 -78 9 140 c8 151 -1 838
-13 945 l-8 65 -7 -60z"/>
<path d="M7714 4265 c-18 -28 -11 -61 15 -68 40 -10 63 29 45 77 -9 24 -41 19
-60 -9z"/>
<path d="M9451 8385 c0 -99 2 -116 12 -100 7 11 12 55 12 100 0 45 -5 89 -12
100 -10 16 -12 -1 -12 -100z"/>
<path d="M1394 5691 c-104 -73 -210 -186 -254 -272 l-19 -36 95 -94 94 -93 55
54 55 54 83 -82 82 -82 48 96 48 97 -57 58 -58 59 47 48 c26 26 47 52 47 58 0
13 -173 184 -186 184 -6 0 -42 -22 -80 -49z"/>
<path d="M12762 5647 l-92 -92 52 -53 53 -52 -58 -58 -58 -58 47 -98 47 -97
84 83 83 82 55 -54 55 -55 95 96 96 95 -42 64 c-22 35 -69 93 -103 128 -60 63
-188 162 -210 162 -6 0 -53 -42 -104 -93z"/>
<path d="M2337 5322 l-27 -28 35 -34 35 -34 30 29 30 29 -32 33 c-18 18 -35
33 -38 33 -3 0 -18 -13 -33 -28z"/>
<path d="M11930 5315 l-34 -35 30 -30 30 -30 34 35 34 35 -30 30 -30 30 -34
-35z"/>
<path d="M1823 5283 c-51 -55 -255 -474 -261 -536 -10 -101 41 -268 185 -602
183 -423 212 -494 242 -583 67 -201 62 -280 -19 -302 -54 -14 -113 -7 -335 41
-322 69 -355 74 -555 74 -158 0 -198 -4 -273 -23 -179 -45 -300 -117 -469
-280 l-109 -106 70 -70 69 -71 -63 -67 c-34 -37 -65 -78 -67 -92 -8 -40 14
-88 49 -109 50 -29 86 -15 163 59 l66 63 289 -289 289 -289 -61 -65 c-68 -72
-78 -92 -69 -141 9 -45 48 -75 98 -75 36 0 47 7 109 67 l70 67 82 -82 82 -82
950 950 950 950 255 -255 255 -255 125 125 125 125 -143 143 -142 142 110 110
110 110 -187 187 -188 188 -109 -109 -109 -109 -606 610 c-624 629 -640 643
-649 579 -3 -20 75 -103 478 -506 l482 -482 -74 -74 c-40 -41 -82 -91 -93
-112 l-20 -37 115 -115 115 -115 -53 -52 -52 -53 -135 135 -135 134 -35 -34
-35 -34 135 -136 135 -135 -120 -120 -120 -120 -64 1 c-58 1 -179 31 -216 54
-12 7 9 33 98 122 61 62 112 121 112 130 0 26 -85 134 -142 179 -96 76 -82 79
-222 -60 l-123 -123 -21 34 c-11 18 -30 62 -43 98 -28 83 -31 226 -5 315 19
67 75 195 85 195 4 0 29 -22 56 -50 l49 -50 -22 -23 -22 -23 33 -32 33 -32 47
30 c51 34 144 131 166 173 14 26 13 29 -17 59 l-31 32 -24 -22 -23 -22 -59 60
-59 60 29 31 c17 17 61 51 99 76 l68 46 -319 319 c-175 175 -325 318 -332 318
-7 0 -29 -17 -48 -37z m171 -407 c49 -20 76 -60 76 -113 0 -38 -5 -50 -34 -79
-29 -29 -41 -34 -81 -34 -40 0 -52 5 -81 34 -29 29 -34 41 -34 79 0 52 27 92
74 113 39 17 40 17 80 0z m476 -1779 c0 -1 -244 -246 -543 -545 l-542 -542
-445 446 c-250 251 -418 427 -384 401 198 -149 484 -310 639 -360 173 -56 259
-57 399 -6 185 67 477 264 758 509 112 97 118 102 118 97z"/>
<path d="M12137 5002 l-319 -319 68 -46 c38 -25 82 -59 99 -76 l29 -31 -59
-60 -59 -60 -23 22 -24 22 -31 -32 c-30 -30 -31 -33 -17 -59 22 -43 120 -144
168 -175 l45 -28 33 32 33 32 -22 23 -22 23 49 50 c27 28 52 50 56 50 3 0 20
-30 37 -67 84 -183 87 -362 10 -517 l-30 -59 -124 124 -124 124 -37 -20 c-52
-28 -166 -141 -191 -191 l-21 -41 114 -113 c82 -81 111 -117 104 -126 -18 -21
-149 -57 -215 -58 l-64 -1 -120 120 -120 120 135 135 135 136 -35 34 -35 34
-135 -134 -135 -135 -55 55 -55 55 116 116 117 117 -38 56 c-20 31 -62 79 -93
106 l-56 50 483 484 c403 403 482 487 479 507 -9 64 -25 49 -649 -579 l-606
-610 -109 109 -109 109 -187 -187 -188 -188 110 -110 110 -110 -145 -145 -145
-145 122 -122 123 -123 257 257 258 258 953 -953 952 -952 82 82 82 82 70 -67
c60 -58 74 -67 106 -67 47 0 71 13 90 50 28 54 20 77 -50 149 -36 37 -65 72
-65 77 0 5 129 139 288 297 l287 287 59 -59 c73 -74 102 -87 150 -71 46 15 66
44 66 94 0 36 -7 47 -67 108 l-67 68 72 73 73 73 -98 96 c-198 191 -332 265
-552 303 -183 32 -388 16 -736 -60 -242 -52 -300 -60 -355 -45 -34 9 -44 18
-57 47 -32 78 8 204 219 698 192 448 241 589 242 705 l1 85 -112 225 c-105
213 -162 300 -194 300 -7 0 -157 -143 -332 -318z m287 -126 c78 -33 102 -126
48 -187 -23 -26 -38 -33 -80 -37 -49 -4 -54 -2 -87 31 -30 30 -35 42 -35 80 0
52 27 92 74 113 39 17 40 17 80 0z m-273 -2012 c298 -238 558 -385 722 -408
64 -10 183 9 287 46 167 59 428 208 623 356 37 28 67 50 67 49 0 -1 -201 -203
-448 -450 l-447 -447 -540 541 c-297 298 -506 512 -464 476 42 -35 132 -109
200 -163z"/>
<path d="M3776 4691 c-68 -68 -69 -70 -57 -100 7 -16 33 -60 57 -97 l44 -68
-27 -28 -27 -29 147 -146 146 -147 29 27 28 27 68 -44 c37 -24 81 -50 97 -57
30 -12 32 -11 102 60 l72 71 -30 58 c-66 126 -195 280 -324 385 -74 61 -225
157 -245 157 -7 0 -42 -31 -80 -69z"/>
<path d="M10422 4731 c-132 -73 -281 -201 -385 -331 -65 -82 -147 -211 -147
-233 0 -7 31 -43 69 -81 80 -79 74 -79 187 -5 l77 50 29 -28 29 -27 146 147
147 146 -27 29 -28 29 50 77 c74 113 74 107 -5 187 -38 38 -73 69 -79 69 -5 0
-34 -13 -63 -29z"/>
<path d="M1486 3721 l-209 -209 49 -7 c76 -9 229 -42 334 -70 108 -29 187 -30
204 -3 8 13 5 37 -13 95 -25 86 -137 383 -149 395 -4 4 -102 -86 -216 -201z"/>
<path d="M12620 3886 c-40 -95 -121 -317 -137 -380 -14 -53 -15 -67 -4 -80 21
-25 93 -20 241 20 74 19 179 42 234 50 55 8 102 16 103 18 1 1 -92 96 -207
211 l-209 209 -21 -48z"/>
<path d="M4082 3157 c-306 -306 -312 -313 -303 -343 18 -65 45 -95 203 -234
208 -183 674 -649 851 -851 139 -160 188 -199 249 -199 35 0 183 99 293 196
119 106 210 212 285 335 66 107 67 114 33 186 -8 18 -78 88 -156 156 -294 257
-627 590 -881 880 -129 147 -179 187 -237 187 -18 0 -97 -73 -337 -313z m-82
-237 c0 -31 56 -86 279 -279 113 -97 275 -238 360 -315 301 -268 484 -406 623
-471 l68 -31 -43 -41 c-23 -22 -73 -63 -111 -92 -78 -58 -116 -65 -146 -29
-223 270 -473 531 -807 844 -225 212 -304 292 -313 318 -11 33 -10 36 32 75
49 46 58 49 58 21z"/>
<path d="M9853 3449 c-30 -15 -83 -67 -175 -172 -241 -275 -590 -624 -865
-865 -149 -131 -193 -185 -193 -238 0 -34 133 -232 215 -321 141 -153 365
-323 425 -323 58 0 108 40 251 203 181 206 657 682 860 859 158 138 189 178
189 241 0 34 -606 637 -640 637 -14 0 -44 -9 -67 -21z m546 -552 c41 -37 42
-39 31 -72 -8 -25 -87 -105 -303 -308 -161 -151 -353 -339 -428 -418 -183
-194 -348 -379 -367 -409 -41 -65 -78 -66 -163 -4 -34 26 -85 67 -111 92 l-49
46 61 27 c137 63 313 194 595 445 105 93 285 250 400 350 226 195 275 243 275
275 0 26 8 23 59 -24z"/>
<path d="M8562 1758 l-41 -77 38 -48 c42 -53 170 -176 198 -191 14 -8 36 0 93
32 l75 41 -161 160 -161 160 -41 -77z"/>
<path d="M5570 1670 l-155 -157 77 -41 77 -42 58 49 c59 50 119 111 166 169
l26 32 -39 73 c-22 39 -43 72 -47 73 -4 1 -78 -69 -163 -156z"/>
<path d="M5848 1502 c-27 -31 -73 -77 -103 -102 l-55 -45 353 -353 352 -353
170 -96 c145 -82 183 -109 256 -180 l86 -85 32 33 33 32 -90 91 c-74 74 -108
120 -187 252 -76 127 -112 177 -175 239 -77 77 -79 78 -103 62 -131 -86 -367
79 -367 258 0 32 7 61 19 81 l19 31 -96 96 -97 97 -47 -58z"/>
<path d="M8349 1463 l-95 -98 18 -35 c23 -42 20 -128 -7 -180 -27 -52 -95
-120 -150 -148 -63 -32 -147 -36 -189 -8 l-28 18 -79 -78 c-61 -61 -99 -112
-175 -238 -78 -130 -114 -179 -186 -252 l-90 -91 33 -32 32 -33 86 85 c74 72
111 98 256 181 l170 96 353 352 352 353 -55 44 c-47 37 -96 89 -140 148 -8 10
-32 -9 -106 -84z"/>
<path d="M12175 709 c-310 -32 -601 -114 -843 -239 -209 -109 -441 -269 -582
-403 -60 -57 -55 -54 35 18 150 121 422 279 620 361 267 109 593 162 939 151
327 -10 532 -59 1235 -296 273 -92 524 -175 559 -185 l62 -17 0 -50 0 -49 90
0 90 0 0 283 -1 282 -25 -30 c-28 -33 -104 -181 -104 -202 0 -7 -3 -13 -6 -13
-19 0 -302 77 -675 184 -615 176 -768 205 -1094 211 -115 2 -250 -1 -300 -6z"/>
<path d="M12871 18 c-41 -4 -76 -10 -79 -13 -3 -3 80 -5 184 -4 117 1 176 4
154 9 -58 13 -181 17 -259 8z"/>
</g>
</svg>
